<svg width="24" height="24" viewBox="0 0 24 24" fill="none" xmlns="http://www.w3.org/2000/svg">
<path fill-rule="evenodd" clip-rule="evenodd" d="M5.87722 4.83109C7.02816 3.97509 8.55145 4.16595 9.57695 4.99458L10.2518 5.5399C11.6859 6.69862 11.867 8.81441 10.651 10.2002L10.5573 10.307C10.0485 10.8868 10.0349 11.5814 10.378 11.9727C10.9406 12.6143 11.7195 13.2074 12.9282 13.8851C13.5775 14.2492 14.4257 14.0914 14.9561 13.4869L15.5199 13.9815L14.9561 13.4869L15.0213 13.4126C16.1734 12.0996 18.1593 11.9293 19.518 13.0271L20.1443 13.5332C21.284 14.454 21.7649 16.1446 20.86 17.4859C20.2047 18.4571 19.4643 19.2297 18.5848 19.8629C17.8633 20.3823 16.9644 20.4782 16.1716 20.2653C13.1187 19.4455 10.6257 18.279 8.55565 16.5973C6.48409 14.9143 4.87394 12.746 3.54381 9.97636C3.25439 9.37372 3.12957 8.61878 3.40131 7.89375C3.8516 6.69232 4.68417 5.71841 5.87722 4.83109ZM8.63422 6.16131C8.04897 5.68842 7.28437 5.65391 6.77239 6.03469C5.73631 6.80528 5.12674 7.56412 4.80589 8.42018C4.71255 8.66924 4.73515 8.99214 4.89596 9.32697C6.15118 11.9406 7.63557 13.9171 9.50149 15.433C11.3689 16.9502 13.6563 18.0368 16.5606 18.8167C16.9864 18.931 17.4062 18.8631 17.7084 18.6456C18.4337 18.1234 19.0528 17.4825 19.6165 16.647C20.003 16.074 19.8585 15.2307 19.2015 14.6999L18.5752 14.1938C17.8426 13.6019 16.7702 13.6937 16.1488 14.4019L15.5851 13.9073L16.1488 14.4019L16.0836 14.4762C15.1263 15.5672 13.5136 15.933 12.1946 15.1935C10.9072 14.4717 9.9679 13.7802 9.25014 12.9616C8.25456 11.8261 8.5985 10.2651 9.42981 9.31764L9.52348 9.21088C10.1774 8.4656 10.0801 7.32956 9.30911 6.70663L8.63422 6.16131Z" fill="#77838F"/>
</svg>
