<svg width="24" height="24" viewBox="0 0 24 24" fill="none" xmlns="http://www.w3.org/2000/svg">
<path d="M9 11C9 11.5523 8.55228 12 8 12C7.44772 12 7 11.5523 7 11C7 10.4477 7.44772 10 8 10C8.55228 10 9 10.4477 9 11Z" fill="#77838F"/>
<path d="M13 11C13 11.5523 12.5523 12 12 12C11.4477 12 11 11.5523 11 11C11 10.4477 11.4477 10 12 10C12.5523 10 13 10.4477 13 11Z" fill="#77838F"/>
<path d="M17 11C17 11.5523 16.5523 12 16 12C15.4477 12 15 11.5523 15 11C15 10.4477 15.4477 10 16 10C16.5523 10 17 10.4477 17 11Z" fill="#77838F"/>
<path fill-rule="evenodd" clip-rule="evenodd" d="M6.79958 5.75C5.66755 5.75 4.75 6.66767 4.75 7.8V15C4.75 15.6904 5.30964 16.25 6 16.25H6.24257C7.0751 16.25 7.75 16.9249 7.75 17.7574C7.75 18.1709 7.77068 18.5828 7.85675 18.8724C7.86709 18.9072 7.87751 18.937 7.88757 18.9622C7.89202 18.956 7.89667 18.9493 7.90153 18.9422C7.95529 18.8633 8.009 18.7666 8.08111 18.6328C8.08626 18.6232 8.09153 18.6134 8.09693 18.6034C8.1598 18.4865 8.23915 18.339 8.32766 18.2023L8.54285 17.8701C9.19718 16.8599 10.3188 16.25 11.5224 16.25H17.2C18.3323 16.25 19.25 15.3323 19.25 14.2002V7.79978C19.25 6.66753 18.3325 5.75 17.2004 5.75H6.79958ZM7.81415 19.0474C7.81419 19.047 7.81656 19.0449 7.82117 19.0422C7.81643 19.0464 7.81412 19.0477 7.81415 19.0474ZM3.25 7.8C3.25 5.83953 4.83883 4.25 6.79958 4.25H17.2004C19.1611 4.25 20.75 5.83923 20.75 7.79978V14.2002C20.75 16.1609 19.1605 17.75 17.2 17.75H11.5224C10.8274 17.75 10.1797 18.1022 9.80184 18.6855L9.58665 19.0178C9.53255 19.1013 9.48053 19.1978 9.40904 19.3306L9.4016 19.3444C9.33321 19.4713 9.24498 19.6345 9.14084 19.7872C8.93552 20.0883 8.55731 20.5106 7.91489 20.5286C7.49742 20.5403 7.1387 20.385 6.87279 20.1157C6.62977 19.8696 6.49718 19.563 6.41892 19.2997C6.26412 18.779 6.25 18.1686 6.25 17.7574C6.25 17.7559 6.24986 17.7552 6.24984 17.7551L6.24972 17.7548C6.24958 17.7544 6.24904 17.7534 6.24782 17.7522C6.24661 17.751 6.24558 17.7504 6.24523 17.7503L6.24486 17.7502C6.24475 17.7501 6.24407 17.75 6.24257 17.75H6C4.48122 17.75 3.25 16.5188 3.25 15V7.8Z" fill="#77838F"/>
</svg>
