<svg width="24" height="24" xmlns="http://www.w3.org/2000/svg" fill="none">
    <path stroke="null" id="svg_1" fill-opacity="0.9" fill="#000" d="m15.07485,2.89598c-0.45275,-0.39607 -1.0407,-0.61528 -1.65037,-0.61528l-3.33892,0c-0.60947,0 -1.19732,0.2191 -1.65002,0.61498l-0.65533,0.57309c-0.44538,0.38948 -1.02373,0.60504 -1.62334,0.60504c-2.7221,0 -4.92879,2.14079 -4.92879,4.78161l0,6.88927c0,2.64087 2.20669,4.78163 4.92879,4.78163l11.08976,0c2.72211,0 4.92882,-2.14076 4.92882,-4.78163l0,-6.88927c0,-2.64082 -2.20671,-4.78161 -4.92882,-4.78161l-0.17624,-0.00702c-0.46751,-0.03734 -0.9114,-0.2224 -1.26217,-0.52926l-0.73335,-0.64154zm-4.98929,0.47946l3.33892,0c0.32411,0 0.63737,0.11681 0.87998,0.32899l0.73335,0.64154c0.53616,0.46907 1.21723,0.75423 1.93763,0.81177l0.22376,0.00986c2.1353,0.00095 3.83365,1.64858 3.83365,3.68782l0,6.88927c0,2.03922 -1.69836,3.68689 -3.78624,3.68689l-11.08976,0c-2.08785,0 -3.78621,-1.64767 -3.78621,-3.68689l0,-6.88927c0,-1.97744 1.59698,-3.58666 3.59751,-3.68238l0.40921,-0.01108c0.80536,-0.04818 1.57216,-0.35909 2.17309,-0.88461l0.65534,-0.57309c0.24251,-0.21207 0.55575,-0.32882 0.87976,-0.32882zm1.61619,3.92737c2.62928,0 4.76077,2.04221 4.76077,4.5614c0,2.51917 -2.13149,4.5614 -4.76077,4.5614c-2.62929,0 -4.76077,-2.04223 -4.76077,-4.5614c0,-2.51919 2.13147,-4.5614 4.76077,-4.5614zm-3.61818,4.5614c0,-1.91459 1.61992,-3.46667 3.61818,-3.46667c1.99828,0 3.61818,1.55208 3.61818,3.46667c0,1.9146 -1.6199,3.46667 -3.61818,3.46667c-1.99826,0 -3.61818,-1.55206 -3.61818,-3.46667z" clip-rule="evenodd" fill-rule="evenodd"/>
  </svg>