<svg width="24" height="24" viewBox="0 0 24 24" fill="none" xmlns="http://www.w3.org/2000/svg">
    <path fill-rule="evenodd" clip-rule="evenodd" d="M10.3438 4.02564C11.3802 3.47892 12.6198 3.47892 13.6562 4.02564L17.8562 6.24102C19.021 6.85541 19.75 8.0641 19.75 9.38099V17.2C19.75 19.1606 18.1606 20.75 16.2 20.75H7.8C5.83939 20.75 4.25 19.1606 4.25 17.2L4.25 9.38099C4.25 8.0641 4.97898 6.85541 6.14376 6.24102L10.3438 4.02564ZM12.9564 5.35238C12.3579 5.03667 11.6421 5.03667 11.0436 5.35238L6.84358 7.56777C6.17096 7.92256 5.75 8.62053 5.75 9.38099L5.75 17.2C5.75 18.3321 6.66782 19.25 7.8 19.25H16.2C17.3322 19.25 18.25 18.3321 18.25 17.2V9.38099C18.25 8.62053 17.829 7.92256 17.1564 7.56777L12.9564 5.35238Z" fill="#77838F"/>
    </svg>
    