<svg width="24" height="24" xmlns="http://www.w3.org/2000/svg" fill="none">
    <path id="svg_1" fill-opacity="0.9" fill="#000" d="m21.73913,7.32495c0,-1.86752 -1.5689,-3.38145 -3.5043,-3.38145l-12.99143,0c-1.93535,0 -3.50427,1.51393 -3.50427,3.38145l0,9.23713c0,1.8675 1.56892,3.3814 3.50427,3.3814l12.99143,0c1.9354,0 3.5043,-1.5139 3.5043,-3.3814l0,-9.23713zm-5.3817,5.75173l0.0795,-0.0669c0.2769,-0.20276 0.667,-0.20262 0.9453,0.01239l3.3304,2.57401l0.0009,0.9658c0,1.3209 -1.1097,2.3918 -2.4787,2.3918l-12.49996,-0.0009l3.4884,-3.3656l0.07361,-0.0625c0.2814,-0.2102 0.68211,-0.2081 0.9623,0.0168l1.27492,1.0235l0.08915,0.0635c0.36768,0.2309 0.85978,0.1867 1.17698,-0.1194l3.5572,-3.4325zm1.8774,-8.14355l-12.99145,0c-1.36891,0 -2.47863,1.07082 -2.47863,2.39175l0,9.2371c0,1.0437 0.69274,1.9312 1.65872,2.2578l4.07453,-3.9323c0.61958,-0.5978 1.58869,-0.6723 2.29527,-0.1964l0.12185,0.0897l1.21501,0.9754l3.502,-3.3793c0.611,-0.58959 1.5637,-0.67122 2.2693,-0.21357l0.1218,0.08636l2.6894,2.07811l0.0008,-7.0029c0,-1.32093 -1.1097,-2.39175 -2.4786,-2.39175zm-6.1599,10.87635l0.0552,-0.0532l0.0599,0.0481c-0.0339,-0.0272 -0.0838,-0.025 -0.1151,0.0051zm-4.18198,-8.31959c1.27451,0 2.30769,0.99698 2.30769,2.22681c0,1.22983 -1.03318,2.2268 -2.30769,2.2268c-1.2745,0 -2.30769,-0.99697 -2.30769,-2.2268c0,-1.22983 1.03319,-2.22681 2.30769,-2.22681zm-1.28199,2.22674c0,-0.68324 0.57399,-1.23711 1.28205,-1.23711c0.70805,0 1.28205,0.55387 1.28205,1.23711c0,0.68324 -0.574,1.23711 -1.28205,1.23711c-0.70806,0 -1.28205,-0.55387 -1.28205,-1.23711z" fill-rule="evenodd"/>
  </svg>