<svg width="24" height="24" xmlns="http://www.w3.org/2000/svg" fill="none">
    <path transform="rotate(46.4685 9.2586 12.1608)" id="svg_1" fill="#002DE3"
        d="m18.04056,3.3788c-0.1012,-0.10074 -0.2291,-0.1705 -0.3686,-0.20105c-0.1395,-0.03056 -0.2848,-0.02066 -0.4189,0.02855l-16.5,6c-0.1423,0.05397 -0.26481,0.14996 -0.35126,0.27522c-0.08645,0.12525 -0.13275,0.27384 -0.13275,0.42603c0,0.15219 0.0463,0.30074 0.13275,0.42604c0.08645,0.1252 0.20896,0.2212 0.35126,0.2752l6.4425,2.5725l4.755,-4.76999l1.0575,1.0575l-4.7775,4.77749l2.58,6.4425c0.0556,0.1396 0.1518,0.2592 0.2761,0.3434c0.1244,0.0843 0.2712,0.1293 0.4214,0.1291c0.1516,-0.0031 0.2986,-0.0521 0.4218,-0.1404c0.1232,-0.0884 0.2167,-0.212 0.2682,-0.3546l6,-16.49999c0.0511,-0.13269 0.0634,-0.27718 0.0355,-0.41661c-0.0278,-0.13943 -0.0948,-0.26806 -0.193,-0.37089z" />
</svg>