<svg width="36" height="36" viewBox="0 0 36 36" fill="none" xmlns="http://www.w3.org/2000/svg">
    <path d="M17.7855 17.0303C17.6439 17.1721 17.5237 17.3338 17.4289 17.5103L15.8399 20.46C15.7875 20.5574 15.7678 20.6691 15.7839 20.7785C15.8 20.888 15.851 20.9893 15.9292 21.0674C16.0075 21.1456 16.1089 21.1964 16.2184 21.2123C16.3278 21.2283 16.4395 21.2084 16.5368 21.1558L19.4865 19.5679C19.6623 19.4723 19.8236 19.3521 19.9654 19.2113L28.8362 10.3405C28.9794 10.1974 29.093 10.0274 29.1705 9.8404C29.2481 9.65336 29.288 9.45288 29.288 9.25041C29.2881 9.04794 29.2483 8.84744 29.1708 8.66036C29.0934 8.47329 28.9798 8.30329 28.8367 8.16009C28.6936 8.01689 28.5236 7.90328 28.3366 7.82575C28.1496 7.74823 27.9491 7.7083 27.7466 7.70825C27.5441 7.7082 27.3436 7.74804 27.1566 7.82547C26.9695 7.90291 26.7995 8.01644 26.6563 8.15958L17.7855 17.0314V17.0303Z" fill="black"/>
    <path d="M18.4999 10.7916C18.7725 10.7916 19.0339 10.6833 19.2267 10.4906C19.4194 10.2978 19.5277 10.0364 19.5277 9.76384V9.24995C19.5277 8.97737 19.4194 8.71595 19.2267 8.52321C19.0339 8.33046 18.7725 8.22218 18.4999 8.22218H12.3333C11.2429 8.22218 10.1973 8.65531 9.42628 9.42629C8.6553 10.1973 8.22217 11.243 8.22217 12.3333V24.6666C8.22217 25.757 8.6553 26.8026 9.42628 27.5736C10.1973 28.3446 11.2429 28.7777 12.3333 28.7777H24.6666C25.7569 28.7777 26.8026 28.3446 27.5736 27.5736C28.3446 26.8026 28.7777 25.757 28.7777 24.6666V18.5C28.7777 18.2274 28.6694 17.966 28.4767 17.7732C28.284 17.5805 28.0225 17.4722 27.7499 17.4722H27.2361C26.9635 17.4722 26.7021 17.5805 26.5093 17.7732C26.3166 17.966 26.2083 18.2274 26.2083 18.5V24.6666C26.2083 25.0755 26.0459 25.4676 25.7567 25.7567C25.4676 26.0459 25.0755 26.2083 24.6666 26.2083H12.3333C11.9244 26.2083 11.5323 26.0459 11.2432 25.7567C10.954 25.4676 10.7916 25.0755 10.7916 24.6666V12.3333C10.7916 11.9244 10.954 11.5323 11.2432 11.2432C11.5323 10.954 11.9244 10.7916 12.3333 10.7916H18.4999Z" fill="black"/>
    </svg>
    