<svg width="38" height="38" viewBox="0 0 38 38" fill="none" xmlns="http://www.w3.org/2000/svg">
<g clip-path="url(#clip0_10827_73524)">
<path d="M9.23102 18.3706L9.23107 18.3705L9.28268 18.2815C13.6239 10.84 24.3761 10.84 28.7173 18.2815L28.7173 18.2815L28.7689 18.3705L28.769 18.3705L28.7718 18.3755C28.7718 18.3755 28.7718 18.3755 28.7718 18.3755C28.9947 18.762 28.9947 19.238 28.7718 19.6245L28.7718 19.6246L28.769 19.6295L28.7689 19.6295L28.7174 19.7185L28.7173 19.7185C24.3761 27.16 13.6239 27.16 9.2827 19.7185L9.23107 19.6295L9.23104 19.6294L9.22823 19.6246L9.22819 19.6245C9.00529 19.238 9.00529 18.762 9.22818 18.3755C9.22818 18.3755 9.22819 18.3755 9.22819 18.3755L9.23102 18.3706Z" stroke="#353E52" stroke-width="1.5"/>
<circle cx="19" cy="19" r="3.25" stroke="#353E52" stroke-width="1.5"/>
</g>
<defs>
<clipPath id="clip0_10827_73524">
<rect width="38" height="38" fill="white"/>
</clipPath>
</defs>
</svg>
