<svg width="68" height="68" xmlns="http://www.w3.org/2000/svg" fill="none">

    <g>
        <title>Layer 1</title>
        <g id="svg_1" filter="url(#filter0_d_582_5288)">
            <rect id="svg_2" fill="white" rx="13.8" height="68" width="68" y="0" x="0" />
            <path id="svg_3" fill="#24A19C"
                d="m48.6668,47.273l-17.0818,0c-0.8475,0 -1.5444,-0.6968 -1.5444,-1.5443c0,-0.8475 0.6969,-1.5444 1.5444,-1.5444l17.0818,0c0.8475,0 1.5444,0.6969 1.5444,1.5444c0,0.8663 -0.6969,1.5443 -1.5444,1.5443z" />
            <path id="svg_4" fill="#24A19C"
                d="m48.6668,35.4267l-17.0818,0c-0.8475,0 -1.5444,-0.6968 -1.5444,-1.5443c0,-0.8475 0.6969,-1.5443 1.5444,-1.5443l17.0818,0c0.8475,0 1.5444,0.6968 1.5444,1.5443c0,0.8475 -0.6969,1.5443 -1.5444,1.5443z" />
            <path id="svg_5" fill="#24A19C"
                d="m48.6668,23.5619l-17.0818,0c-0.8475,0 -1.5444,-0.6968 -1.5444,-1.5443c0,-0.8475 0.6969,-1.5444 1.5444,-1.5444l17.0818,0c0.8475,0 1.5444,0.6969 1.5444,1.5444c0,0.8475 -0.6969,1.5443 -1.5444,1.5443z" />
            <path id="svg_6" fill="#24A19C"
                d="m20.2473,26.1232c-0.4143,0 -0.8098,-0.1695 -1.0923,-0.452l-1.7139,-1.7138c-0.6026,-0.6027 -0.6026,-1.582 0,-2.1847c0.6027,-0.6027 1.582,-0.6027 2.1847,0l0.6215,0.6215l4.0303,-4.0303c0.6027,-0.6027 1.582,-0.6027 2.1847,0c0.6027,0.6026 0.6027,1.582 0,2.1846l-5.1227,5.1227c-0.3013,0.2825 -0.678,0.452 -1.0923,0.452z" />
            <path id="svg_7" fill="#24A19C"
                d="m20.2473,37.9882c-0.3955,0 -0.791,-0.1507 -1.0923,-0.452l-1.7139,-1.7138c-0.6026,-0.6027 -0.6026,-1.582 0,-2.1847c0.6027,-0.6027 1.582,-0.6027 2.1847,0l0.6215,0.6215l4.0303,-4.0303c0.6027,-0.6027 1.582,-0.6027 2.1847,0c0.6027,0.6026 0.6027,1.582 0,2.1846l-5.1227,5.1227c-0.3013,0.3013 -0.6968,0.452 -1.0923,0.452z" />
            <path id="svg_8" fill="#24A19C"
                d="m20.2473,49.2882c-0.3955,0 -0.791,-0.1507 -1.0923,-0.452l-1.7139,-1.7139c-0.6026,-0.6026 -0.6026,-1.582 0,-2.1846c0.6027,-0.6027 1.582,-0.6027 2.1847,0l0.6215,0.6215l4.0303,-4.0304c0.6027,-0.6026 1.582,-0.6026 2.1847,0c0.6027,0.6027 0.6027,1.582 0,2.1847l-5.1227,5.1227c-0.3013,0.3013 -0.6968,0.452 -1.0923,0.452z" />
        </g>
    </g>
</svg>