<svg width="24" height="24" viewBox="0 0 24 24" fill="none" xmlns="http://www.w3.org/2000/svg">
<path fill-rule="evenodd" clip-rule="evenodd" d="M12.0001 11.0367C11.4681 11.0367 11.0367 11.468 11.0367 12.0001C11.0367 12.5321 11.4681 12.9635 12.0001 12.9635C12.5322 12.9635 12.9635 12.5321 12.9635 12.0001C12.9635 11.468 12.5322 11.0367 12.0001 11.0367ZM9.53674 12.0001C9.53674 10.6396 10.6396 9.53671 12.0001 9.53671C13.3606 9.53671 14.4635 10.6396 14.4635 12.0001C14.4635 13.3606 13.3606 14.4635 12.0001 14.4635C10.6396 14.4635 9.53674 13.3606 9.53674 12.0001Z" fill="#77838F"/>
<path fill-rule="evenodd" clip-rule="evenodd" d="M9.93142 4.90344C10.4294 2.69885 13.5706 2.69886 14.0686 4.90344L14.1823 5.40666C14.2767 5.82485 14.7566 6.02363 15.1191 5.79472L15.5553 5.51926C17.4663 4.31251 19.6875 6.53368 18.4807 8.44469L18.2053 8.88089C17.9764 9.24339 18.1752 9.72328 18.5933 9.81775L19.0966 9.93142C21.3012 10.4294 21.3011 13.5706 19.0966 14.0686L18.5933 14.1823C18.1752 14.2767 17.9764 14.7566 18.2053 15.1191L18.4807 15.5553C19.6875 17.4663 17.4663 19.6875 15.5553 18.4807L15.1191 18.2053C14.7566 17.9764 14.2767 18.1752 14.1823 18.5933L14.0686 19.0966C13.5706 21.3012 10.4294 21.3011 9.93142 19.0966L9.81775 18.5933C9.72328 18.1752 9.24339 17.9764 8.88089 18.2053L8.44468 18.4807C6.53368 19.6875 4.31251 17.4663 5.51927 15.5553L5.79472 15.1191C6.02363 14.7566 5.82485 14.2767 5.40666 14.1823L4.90344 14.0686C2.69885 13.5706 2.69886 10.4294 4.90344 9.93142L5.40666 9.81775C5.82485 9.72328 6.02363 9.24339 5.79472 8.88089L5.51926 8.44468C4.31251 6.53368 6.53368 4.31252 8.44469 5.51927L8.88089 5.79472C9.24339 6.02363 9.72328 5.82485 9.81775 5.40666L9.93142 4.90344ZM12.6054 5.23394C12.4597 4.58868 11.5403 4.58869 11.3946 5.23394L11.2809 5.73716C10.9581 7.16595 9.31852 7.84511 8.07999 7.06301L7.64379 6.78756C7.08446 6.43436 6.43436 7.08447 6.78756 7.64379L7.06301 8.07999C7.84511 9.31852 7.16595 10.9581 5.73716 11.2809L5.23394 11.3946C4.58868 11.5403 4.58869 12.4597 5.23394 12.6054L5.73716 12.7191C7.16595 13.0419 7.84511 14.6815 7.06301 15.92L6.78756 16.3562C6.43436 16.9155 7.08446 17.5656 7.64379 17.2124L8.07999 16.937C9.31852 16.1549 10.9581 16.834 11.2809 18.2628L11.3946 18.7661C11.5403 19.4113 12.4597 19.4113 12.6054 18.7661L12.7191 18.2628C13.0419 16.834 14.6815 16.1549 15.92 16.937L16.3562 17.2124C16.9155 17.5656 17.5656 16.9155 17.2124 16.3562L16.937 15.92C16.1549 14.6815 16.834 13.0419 18.2628 12.7191L18.7661 12.6054C19.4113 12.4597 19.4113 11.5403 18.7661 11.3946L18.2628 11.2809C16.834 10.9581 16.1549 9.31852 16.937 8.07999L17.2124 7.64379C17.5656 7.08446 16.9155 6.43436 16.3562 6.78756L15.92 7.06301C14.6815 7.84511 13.0419 7.16595 12.7191 5.73716L12.6054 5.23394Z" fill="#77838F"/>
</svg>
