<svg width="400" height="300" xmlns="http://www.w3.org/2000/svg" version="1.0" preserveAspectRatio="xMidYMid meet">

  <path stroke="#000" fill="#fff" d="m215.14418,0.94068c-7.57631,2.41303 -13.33429,7.65872 -15.45566,14.26831l-1.41424,4.19656l-1.61628,-3.25233c-2.42442,-4.82604 -9.19258,-10.70123 -13.9404,-11.96019c-9.79868,-2.72776 -19.59737,2.62285 -25.05231,13.74373l-3.33358,7.02924l-2.92951,-3.46217c-5.55596,-6.60958 -17.57702,-10.07174 -27.57774,-7.86855c-10.80886,2.3081 -18.08211,10.80614 -19.39534,22.24177l-0.70712,6.08501l-2.62645,-1.99337c-6.66715,-4.82604 -14.74854,-5.56044 -21.31467,-1.88846c-4.74782,2.62285 -8.0814,7.76364 -8.0814,12.48476c0,3.35724 -0.6061,3.56708 -3.23256,1.15405c-1.21221,-1.04914 -4.14172,-1.88846 -7.77833,-2.20319c-15.55668,-1.15405 -31.82047,15.0027 -31.71946,31.36928c0.10102,3.25233 0.6061,7.02924 1.31323,8.28821c1.21221,2.3081 1.11119,2.3081 -2.42442,1.67862c-11.31394,-2.20319 -21.92077,9.12752 -21.81976,23.39582c0.10102,5.14079 3.03052,11.64545 6.9702,15.0027c1.7173,1.57371 3.13154,3.04251 3.13154,3.25233c0,0.31475 -1.41424,0.73439 -3.13154,1.15405c-6.66715,1.36389 -12.02107,11.12088 -10.5058,19.40908c1.51526,8.49803 6.46512,14.79288 15.15261,19.30417l4.94985,2.51794l-3.33358,0.83932c-1.91933,0.41966 -5.15189,2.62285 -7.57631,5.14079c-10.90987,11.33071 -7.98038,29.90049 5.25291,33.36265c3.43459,0.83932 4.24273,1.4688 3.63663,2.83267c-3.63663,8.60295 -4.6468,13.63882 -4.24273,21.19263c1.31323,23.08107 18.78923,34.83144 42.73035,28.74643c7.87936,-1.99337 7.57631,-1.99337 7.57631,1.36389c0,4.40638 4.14172,11.96019 7.98038,14.58304c4.54578,3.25233 11.11191,3.14742 17.88008,-0.10491c2.82849,-1.36389 5.55596,-3.04251 5.85901,-3.67199c1.31323,-2.09828 2.3234,-1.15405 3.53561,3.25233c4.94985,17.52064 20.70857,21.7172 36.56829,9.757l4.84884,-3.7769l2.22238,2.3081c6.06105,6.29484 22.32484,9.12752 33.43675,5.77027c5.85901,-1.67862 14.34447,-8.39312 15.45566,-12.17002c0.6061,-1.99337 0.80814,-1.88846 4.34375,0.94423c4.84884,3.88181 9.29359,5.35061 16.16278,5.35061c8.0814,0 13.13226,-1.99337 18.28415,-7.02924l4.44477,-4.40638l5.45494,5.14079c8.68749,8.18329 17.27397,9.44226 24.34518,3.46217c3.03052,-2.51794 6.3641,-7.55381 7.57631,-11.12088c0.10102,-0.52457 2.02035,0.20982 4.14172,1.78353c5.55596,3.88181 11.01089,5.14079 19.90043,4.61622c9.29359,-0.52457 17.27397,-4.19656 23.33502,-10.4914c4.34375,-4.51131 7.77833,-11.33071 7.87936,-15.52727c0,-2.51794 0.20203,-2.62285 7.87936,-2.62285c6.56613,-0.10491 8.88952,-0.62948 14.5465,-3.35724c7.87936,-3.88181 15.25362,-10.4914 18.18313,-16.57641c2.42442,-4.72113 2.92951,-14.26831 0.90916,-18.15012c-1.11119,-2.20319 -1.01017,-2.3081 2.62645,-2.3081c8.48546,-0.10491 17.67804,-7.34398 22.42586,-17.73046c2.02035,-4.61622 2.62645,-7.44889 2.52544,-13.21916c0,-9.44226 -2.62645,-15.42236 -9.8997,-23.39582l-5.55596,-6.08501l4.34375,-3.88181c8.88952,-7.65872 11.11191,-18.7796 5.85901,-29.16609c-3.23256,-6.50467 -9.59665,-11.2258 -16.36482,-12.17002l-4.14172,-0.62948l2.52544,-2.72776c3.53561,-3.7769 4.6468,-7.55381 4.6468,-15.10761c0,-7.02924 -2.3234,-13.5339 -5.85901,-16.78623c-2.82849,-2.62285 -8.99054,-4.82604 -13.53633,-4.93096l-3.83866,0l0,-6.08501c0,-7.34398 -2.42442,-13.11425 -7.98038,-19.40908c-5.96003,-6.7145 -12.82921,-9.54717 -21.31467,-8.81278l-6.56613,0.52457l-0.10102,-5.87518c0,-6.7145 -1.7173,-10.80614 -6.56613,-15.7371c-7.77833,-7.86855 -19.1933,-6.81941 -29.19402,2.51794l-3.83866,3.56708l-2.22238,-4.61622c-5.55596,-12.06511 -20.60755,-12.17002 -31.4164,-0.31475l-4.24273,4.82604l-2.22238,-5.03587c-4.6468,-10.28157 -16.56685,-15.94693 -26.7696,-12.79951l-0.00001,-0.00002z" id="svg_2"/>
</svg>